<?xml version="1.0" standalone="no"?>
<!DOCTYPE svg PUBLIC "-//W3C//DTD SVG 20010904//EN"
 "http://www.w3.org/TR/2001/REC-SVG-20010904/DTD/svg10.dtd">
<svg version="1.0" xmlns="http://www.w3.org/2000/svg"
 width="260.000000pt" height="260.000000pt" viewBox="0 0 260.000000 260.000000"
 preserveAspectRatio="xMidYMid meet">
<metadata>
Created by potrace 1.11, written by Peter Selinger 2001-2013
</metadata>
<g transform="translate(0.000000,260.000000) scale(0.100000,-0.100000)"
fill="#000000" stroke="none">
<path d="M300 2564 c-110 -30 -192 -89 -244 -177 -45 -77 -55 -144 -56 -368
l-1 -205 83 -2 c132 -2 217 -43 284 -138 60 -84 67 -123 67 -369 0 -181 -3
-230 -17 -275 -32 -102 -115 -189 -211 -220 -33 -11 -86 -17 -193 -20 -19 0
-15 -395 4 -470 38 -144 143 -245 294 -280 73 -18 1857 -21 1959 -4 120 20
232 97 280 192 42 83 51 144 48 362 l-2 205 -63 -3 c-66 -3 -154 17 -201 46
-44 27 -110 101 -131 146 -29 64 -36 130 -34 341 1 209 12 267 61 341 69 102
176 151 321 148 l54 -1 -5 231 c-5 245 -9 273 -61 354 -54 86 -152 150 -261
171 -30 6 -423 10 -985 10 -788 0 -944 -3 -990 -15z m1219 -509 c184 -43 328
-155 412 -320 58 -115 65 -180 63 -590 -1 -381 -4 -405 -66 -533 -73 -150
-213 -263 -386 -311 -62 -17 -97 -19 -259 -17 -164 2 -197 6 -258 25 -212 70
-381 265 -411 477 -12 87 -8 757 6 816 6 29 30 91 53 137 72 149 205 257 377
307 63 18 102 22 240 23 113 0 186 -4 229 -14z"/>
<path d="M1107 1973 c-178 -36 -323 -170 -390 -358 -20 -57 -21 -79 -21 -435
0 -279 3 -385 12 -415 64 -197 184 -324 356 -377 101 -31 360 -31 461 0 184
56 345 235 373 413 5 31 8 213 7 405 -1 331 -3 352 -23 408 -65 178 -193 301
-366 351 -74 22 -318 26 -409 8z m367 -182 c106 -37 189 -112 234 -210 24 -52
25 -64 26 -245 1 -216 -4 -269 -34 -331 -45 -92 -161 -178 -275 -203 -79 -18
-211 -13 -283 9 -136 42 -234 137 -264 255 -14 54 -17 389 -4 460 25 132 170
260 319 282 87 12 221 4 281 -17z"/>
<path d="M980 1343 c-25 -10 -27 -21 -26 -132 2 -90 6 -115 25 -152 43 -83
107 -135 201 -163 69 -21 143 -21 160 -1 17 20 -2 64 -27 66 -10 1 -29 2 -43
3 -89 6 -175 57 -209 124 -23 45 -21 33 -21 141 0 68 -4 93 -16 105 -16 17
-20 18 -44 9z"/>
</g>
</svg>
